%
M48
FMAT,1
METRIC,TZ,000.000
T01C0.30
T02C1.00
%
T01
X009975Y008975
X013975Y002975
X033975Y004975
X041975Y005975
X051975Y004975
X052725Y010225
X045975Y013975
X050975Y016975
X050975Y022975
X055975Y022975
X059925Y022075
X063975Y024975
X063975Y028475
X064025Y030975
X064025Y036025
X063975Y038575
X063975Y041075
X063975Y044075
X066475Y045975
X068975Y047475
X070325Y044975
X071725Y041225
X071175Y036025
X083075Y044975
X081975Y053975
X081975Y056975
X070975Y055975
X064975Y053975
X054975Y053975
X048475Y047975
X043975Y047975
X043975Y043975
X043975Y039975
X039475Y037325
X039975Y031975
X039975Y028475
X039975Y023975
X050975Y028475
X055975Y028475
X055975Y030975
X054225Y033475
X051475Y032225
X054975Y035975
X054975Y038975
X054975Y040975
X054975Y043975
X054975Y046975
X049975Y039875
X037125Y042375
X034975Y043975
X030725Y045975
X033225Y047975
X028975Y053975
X044975Y053975
X025975Y038975
X017625Y034725
X022825Y029675
X024425Y028475
X020375Y027125
X017975Y023975
X012625Y019575
X039975Y015975
X059975Y005975
X069975Y004975
X063975Y017975
X068975Y020975
X070325Y023325
X071675Y024625
X014975Y041975
X004975Y048975
X002975Y050975
T02
X008851Y051275
X011391Y051275
X013931Y051275
X016471Y051275
X019011Y051275
X021551Y051275
X024091Y051275
X026631Y051275
X030695Y051275
X033235Y051275
X035775Y051275
X038315Y051275
X040855Y051275
X043395Y051275
X045935Y051275
X048475Y051275
X053555Y051275
X056095Y051275
X058635Y051275
X061175Y051275
X063715Y051275
X066255Y051275
X068795Y051275
X071335Y051275
X073875Y051275
X076415Y051275
X078955Y051275
X081495Y051275
X081495Y048735
X078955Y048735
X076415Y048735
X073875Y048735
X073875Y046195
X076415Y046195
X078955Y046195
X081495Y046195
X081495Y043655
X078955Y043655
X076415Y043655
X073875Y043655
X073875Y041115
X076415Y041115
X078955Y041115
X081495Y041115
X081495Y038575
X078955Y038575
X076415Y038575
X073875Y038575
X073875Y036035
X076415Y036035
X078955Y036035
X081495Y036035
X081495Y033495
X078955Y033495
X076415Y033495
X073875Y033495
X073875Y030955
X076415Y030955
X078955Y030955
X081495Y030955
X081495Y028415
X078955Y028415
X076415Y028415
X073875Y028415
X073875Y025875
X076415Y025875
X078955Y025875
X081495Y025875
X081495Y023335
X078955Y023335
X076415Y023335
X073875Y023335
X073875Y020795
X076415Y020795
X078955Y020795
X081495Y020795
X081495Y018255
X078955Y018255
X076415Y018255
X073875Y018255
X073875Y015715
X076415Y015715
X078955Y015715
X081495Y015715
X081495Y013175
X078955Y013175
X076415Y013175
X073875Y013175
X078955Y010635
X081495Y010635
X081495Y008095
X078955Y008095
X076415Y003015
X073875Y003015
X071335Y003015
X068795Y003015
X066255Y003015
X063715Y003015
X061175Y003015
X058635Y003015
X053555Y003015
X051015Y003015
X048475Y003015
X045935Y003015
X043395Y003015
X040855Y003015
X038315Y003015
X035775Y003015
X030695Y003015
X028155Y003015
X025615Y003015
X023075Y003015
X020535Y003015
X017995Y003015
X017995Y008095
X015455Y008095
X012915Y008095
X020535Y008095
X023075Y008095
X025615Y008095
X030695Y008095
X033235Y008095
X035775Y008095
X038315Y008095
X040855Y008095
X043395Y008095
X045935Y008095
X048475Y008095
X053555Y008095
X056095Y008095
X058635Y008095
X061175Y008095
X063715Y008095
X066255Y008095
X068795Y008095
X071335Y008095
X073875Y053815
X076415Y053815
X076415Y056355
X073875Y056355
X066255Y056355
X063715Y056355
X061175Y056355
X058635Y056355
X056095Y056355
X053555Y056355
X051015Y056355
X048475Y056355
X043395Y056355
X040855Y056355
X038315Y056355
X035775Y056355
X033235Y056355
X030695Y056355
X028155Y056355
X025615Y056355
X021551Y056355
X019011Y056355
X016471Y056355
X013931Y056355
X011391Y056355
X008851Y056355
X006311Y056355
X003771Y056355
T00
M30
