G75*
G70*
%OFA0B0*%
%FSLAX24Y24*%
%IPPOS*%
%LPD*%
%AMOC8*
5,1,8,0,0,1.08239X$1,22.5*
%
%ADD10R,0.0674X0.0674*%
%ADD11C,0.0674*%
%ADD12C,0.0358*%
D10*
X005194Y003297D03*
X007194Y001297D03*
X012194Y003297D03*
X014194Y001297D03*
X021194Y003297D03*
X023194Y001297D03*
X021194Y020297D03*
X019194Y022297D03*
X012194Y020297D03*
X010194Y022297D03*
X003594Y020297D03*
X001594Y022297D03*
X029194Y022297D03*
X032194Y020297D03*
D11*
X031194Y020297D03*
X030194Y020297D03*
X029194Y020297D03*
X028194Y020297D03*
X027194Y020297D03*
X026194Y020297D03*
X025194Y020297D03*
X024194Y020297D03*
X023194Y020297D03*
X022194Y020297D03*
X019194Y020297D03*
X018194Y020297D03*
X017194Y020297D03*
X016194Y020297D03*
X015194Y020297D03*
X014194Y020297D03*
X013194Y020297D03*
X010594Y020297D03*
X009594Y020297D03*
X008594Y020297D03*
X007594Y020297D03*
X006594Y020297D03*
X005594Y020297D03*
X004594Y020297D03*
X004594Y022297D03*
X003594Y022297D03*
X002594Y022297D03*
X005594Y022297D03*
X006594Y022297D03*
X007594Y022297D03*
X008594Y022297D03*
X011194Y022297D03*
X012194Y022297D03*
X013194Y022297D03*
X014194Y022297D03*
X015194Y022297D03*
X016194Y022297D03*
X017194Y022297D03*
X020194Y022297D03*
X021194Y022297D03*
X022194Y022297D03*
X023194Y022297D03*
X024194Y022297D03*
X025194Y022297D03*
X026194Y022297D03*
X029194Y021297D03*
X030194Y021297D03*
X030194Y022297D03*
X030194Y019297D03*
X029194Y019297D03*
X029194Y018297D03*
X030194Y018297D03*
X031194Y018297D03*
X032194Y018297D03*
X032194Y019297D03*
X031194Y019297D03*
X031194Y017297D03*
X030194Y017297D03*
X029194Y017297D03*
X029194Y016297D03*
X030194Y016297D03*
X031194Y016297D03*
X032194Y016297D03*
X032194Y015297D03*
X031194Y015297D03*
X030194Y015297D03*
X029194Y015297D03*
X029194Y014297D03*
X030194Y014297D03*
X031194Y014297D03*
X032194Y014297D03*
X032194Y013297D03*
X031194Y013297D03*
X030194Y013297D03*
X029194Y013297D03*
X029194Y012297D03*
X030194Y012297D03*
X031194Y012297D03*
X032194Y012297D03*
X032194Y011297D03*
X031194Y011297D03*
X030194Y011297D03*
X029194Y011297D03*
X029194Y010297D03*
X030194Y010297D03*
X031194Y010297D03*
X032194Y010297D03*
X032194Y009297D03*
X031194Y009297D03*
X030194Y009297D03*
X029194Y009297D03*
X029194Y008297D03*
X030194Y008297D03*
X031194Y008297D03*
X032194Y008297D03*
X032194Y007297D03*
X031194Y007297D03*
X030194Y007297D03*
X029194Y007297D03*
X029194Y006297D03*
X030194Y006297D03*
X031194Y006297D03*
X032194Y006297D03*
X032194Y005297D03*
X031194Y005297D03*
X030194Y005297D03*
X029194Y005297D03*
X031194Y004297D03*
X032194Y004297D03*
X032194Y003297D03*
X031194Y003297D03*
X030194Y001297D03*
X029194Y001297D03*
X028194Y001297D03*
X027194Y001297D03*
X026194Y001297D03*
X025194Y001297D03*
X024194Y001297D03*
X024194Y003297D03*
X023194Y003297D03*
X022194Y003297D03*
X021194Y001297D03*
X020194Y001297D03*
X019194Y001297D03*
X018194Y001297D03*
X017194Y001297D03*
X016194Y001297D03*
X015194Y001297D03*
X015194Y003297D03*
X014194Y003297D03*
X013194Y003297D03*
X012194Y001297D03*
X011194Y001297D03*
X010194Y001297D03*
X009194Y001297D03*
X008194Y001297D03*
X008194Y003297D03*
X007194Y003297D03*
X006194Y003297D03*
X009194Y003297D03*
X010194Y003297D03*
X016194Y003297D03*
X017194Y003297D03*
X018194Y003297D03*
X019194Y003297D03*
X025194Y003297D03*
X026194Y003297D03*
X027194Y003297D03*
X028194Y003297D03*
X032194Y017297D03*
D12*
X004037Y003643D03*
X005612Y001281D03*
X013486Y002069D03*
X016635Y002462D03*
X020572Y002069D03*
X020868Y004135D03*
X018210Y005612D03*
X020179Y006793D03*
X020179Y009155D03*
X022147Y009155D03*
X023702Y008801D03*
X025297Y009943D03*
X025297Y011320D03*
X025317Y012305D03*
X025317Y014293D03*
X025297Y015297D03*
X025297Y016281D03*
X025297Y017462D03*
X026281Y018210D03*
X027265Y018801D03*
X027797Y017817D03*
X028348Y016340D03*
X028131Y014293D03*
X032817Y017817D03*
X032383Y021360D03*
X032383Y022541D03*
X028053Y022147D03*
X025691Y021360D03*
X021754Y021360D03*
X019194Y018998D03*
X017423Y018998D03*
X017423Y017423D03*
X017423Y015848D03*
X015651Y014805D03*
X015848Y012698D03*
X015848Y011320D03*
X015848Y009549D03*
X020179Y011320D03*
X022147Y011320D03*
X022147Y012305D03*
X021458Y013289D03*
X020376Y012797D03*
X021754Y014273D03*
X021754Y015454D03*
X021754Y016242D03*
X021754Y017423D03*
X021754Y018604D03*
X019785Y015809D03*
X014726Y016793D03*
X013880Y017423D03*
X012206Y018210D03*
X013191Y018998D03*
X011517Y021360D03*
X017817Y021360D03*
X010336Y015454D03*
X007049Y013781D03*
X009096Y011793D03*
X009726Y011320D03*
X008131Y010789D03*
X007187Y009549D03*
X005080Y007817D03*
X015848Y006399D03*
X023722Y002462D03*
X027659Y002069D03*
X025297Y007187D03*
X027265Y008368D03*
X027797Y009293D03*
X028328Y009805D03*
X006006Y016635D03*
X002069Y019391D03*
X001281Y020179D03*
M02*
